M48
INCH
T01C0.0150
T02C0.0300
T03C0.0400
T04C0.0600
T05C0.1181
%
T01
X-020380Y+006473
X-020328Y+003805
X-005222Y+005891
X-007843Y+003240
X-009289Y+014024
X-004831Y+013963
T02
X-015500Y+013500
X-015500Y+012500
X-015500Y+011500
X-015500Y+010500
X-015500Y+009500
X-015500Y+008500
X-015500Y+007500
X-015500Y+006500
X-015500Y+005500
X-015500Y+004500
X-012500Y+004500
X-012500Y+005500
X-012500Y+006500
X-012500Y+007500
X-012500Y+008500
X-012500Y+009500
X-012500Y+010500
X-012500Y+011500
X-012500Y+012500
X-012500Y+013500
X-018050Y+008440
X-018050Y+004440
X-017320Y+009500
X-017320Y+005500
X-016660Y+010440
X-016660Y+006440
T03
X-020460Y+008530
X-020460Y+009530
X-020460Y+010530
X-019220Y+010510
X-019220Y+009510
X-019220Y+008510
X-002190Y-004120
X-003190Y-004120
X-004190Y-004120
X-005190Y-004120
X-006190Y-004120
X-007190Y-004120
X-008190Y-004120
X-009190Y-004120
X-010190Y-004120
X-011190Y-004120
X-012190Y-004120
X-013190Y-004120
X-014190Y-004120
X-015190Y-004120
X-016190Y-004120
X-017190Y-004120
X-018190Y-004120
X-019190Y-004120
X-020190Y-004120
X-021190Y-004120
X-021190Y-005120
X-020190Y-005120
X-019190Y-005120
X-018190Y-005120
X-017190Y-005120
X-016190Y-005120
X-015190Y-005120
X-014190Y-005120
X-013190Y-005120
X-012190Y-005120
X-011190Y-005120
X-010190Y-005120
X-009190Y-005120
X-008190Y-005120
X-007190Y-005120
X-006190Y-005120
X-005190Y-005120
X-004190Y-005120
X-003190Y-005120
X-002190Y-005120
X-010760Y+012500
X-009760Y+012500
X-008760Y+012500
X-010790Y+011490
X-009790Y+011490
X-008790Y+011490
X-010800Y+010510
X-009800Y+010510
X-008800Y+010510
X-010790Y+009500
X-009790Y+009500
X-008790Y+009500
X-010790Y+008500
X-009790Y+008500
X-008790Y+008500
X-010780Y+007490
X-009780Y+007490
X-008780Y+007490
X-010790Y+006470
X-009790Y+006470
X-008790Y+006470
X-010800Y+005470
X-009800Y+005470
X-008800Y+005470
X-003850Y+002030
X-003850Y+003030
X-003850Y+004030
X-003850Y+005030
X-003850Y+006030
X-006188Y-008389
X-007188Y-008389
X-008188Y-008389
X-009188Y-008389
X-007047Y+000157
X-007047Y-000842
X-007047Y-001842
T04
X-002319Y+011801
X-002319Y+009801
T05
X-001181Y+017165
X-019500Y+017500
M30
